<!-- Generated by IcoMoon.io -->
<svg version="1.1" xmlns="http://www.w3.org/2000/svg" width="7273" height="1024" viewBox="0 0 7273 1024">
<title></title>
<g id="icomoon-ignore">
</g>
<path d="M4323.671 571.888c-10.909-1.873-47.685-8.016-58.483-10-58.070-10.413-107.876-24.021-107.876-82.477 0-50.191 52.615-73.579 118.096-73.579 97.435 0 182.887 44.131 192.611 49.007l53.387-140.877c-20.495-10.688-107.407-57.106-244.345-57.106-125.423 0-278.532 65.838-278.532 229.635 0 146.607 104.763 193.658 205.696 211.399 13.939 2.589 57.794 10.055 70.301 12.231 67.904 11.487 105.203 36.748 105.203 81.21 0 56.362-52.946 82.835-133.164 82.835-128.371 0-203.74-38.291-225.53-47.216l-59.144 137.847c18.402 9.476 106.057 58.924 277.099 58.924 165.973 0 299.137-82.201 299.137-235.227-1.212-142.392-96.994-196.413-214.456-216.605zM4830.46 0.252l-157.048 86.884v183.989h-82.697v150.216h82.697v324.784c0 138.756 56.996 263.325 258.119 263.325h62.918v-150.381h-23.553c-98.895 0-140.437-57.051-140.437-134.596v-303.104h180.408v-150.216h-180.408v-270.901zM6057.585 409.551c61.32 0 124.156 27.878 142.916 95.341l142.558-54.186c-39.889-141.098-170.959-193.851-286.575-193.851-207.184 0-290.68 128.619-290.68 253.656v259.414c0 124.982 83.496 253.739 290.68 253.739 115.616 0 246.687-52.836 286.575-193.906l-142.558-54.213c-18.842 67.381-81.623 95.424-142.916 95.424-106.663 0-134.955-58.428-134.955-125.038v-211.536c-0.083-66.472 28.291-124.845 134.955-124.845zM6729.245 602.714l293.627-331.56h-193.162l-252.582 289.027v-559.873h-157.185v1009.115h157.185v-234.979l51.569-58.235 224.897 293.214h188.534z"></path>
<path d="M5450.276 432.278h-163.356c-25.95 0-47.051 21.101-47.051 46.968v177.24h-161.125v-177.24c0-0.008 0-0.018 0-0.028 0-114.911 93.154-208.065 208.065-208.065 0.039 0 0.077 0 0.116 0h163.35v161.125zM5317.332 848.271h163.466c25.928-0.078 46.921-21.091 46.968-47.019v-177.162h161.125v177.185c0 114.938-93.16 208.116-208.090 208.148h-163.469v-161.152zM2653.694 271.153h180.353v150.216h-180.353v303.104c0 77.491 41.486 134.596 140.271 134.596h23.581v150.354h-62.946c-201.151 0-258.009-124.542-258.009-263.325v-324.728h-264.345v303.104c0 77.491 41.541 134.596 140.326 134.596h23.525v150.354h-62.946c-201.068 0-258.064-124.542-258.064-263.325v-324.728h-79.639v-150.216h79.639v-183.989l157.158-86.884v270.873h264.345v-183.989l157.103-86.884v270.873zM957.987 256.856c-49.723 0-100.107 9.614-145.478 28.815v-285.418h-157.103v1009.143h157.103v-576.87c31.542-19.834 76.995-31.679 121.401-31.679 98.73 0 145.202 54.902 145.202 135.891v472.685h156.965v-494.172c0.028-149.004-107.931-258.394-278.091-258.394zM1754.162 862.595c-29.861 16.115-67.656 25.344-105.259 25.344-117.214 0-161.29-59.723-161.29-142.089v-474.696h-157.103v477.534c0 185.669 107.325 274.978 299.054 274.978 91.843 0 193.52-23.222 281.617-61.376v-691.164h-157.020v591.47zM361.697 571.888c-10.854-1.873-47.685-8.016-58.511-10-57.96-10.413-107.848-24.021-107.848-82.477 0-50.191 52.56-73.579 118.123-73.579 97.408 0 182.859 44.131 192.611 49.007l53.387-140.877c-20.385-10.688-107.407-57.106-244.4-57.106-125.313 0-278.504 65.838-278.504 229.635 0 146.607 104.652 193.658 205.751 211.399 13.911 2.589 57.767 10.055 70.384 12.231 67.877 11.487 105.011 36.748 105.011 81.21 0 56.362-52.808 82.835-132.971 82.835-128.509 0-203.851-38.291-225.613-47.216l-59.117 137.847c18.429 9.476 106.030 58.924 277.071 58.924 165.973 0 299.137-82.201 299.137-235.227-1.432-142.392-97.16-196.413-214.511-216.605zM3483.503 510.512c0-135.037-102.917-253.711-287.98-253.711-210.049 0-290.707 131.153-290.707 253.711v245.199c0 169.609 108.371 268.008 290.707 268.008 160.849 0 244.345-93.027 269.165-148.866l-132.641-79.695c-11.322 32.809-63.8 78.841-135.478 78.841-97.104 0-134.459-54.213-134.459-122.118l-0.578-40.412h421.971v-200.958zM3326.428 584.284h-264.868v-53.717c0-59.916 30.109-124.184 133.274-124.184 99.418 0 131.594 62.588 131.594 121.264v56.637zM3584.051 510.788v498.635h156.937v-485.219c0-42.368 24.049-114.79 139.362-114.79 18.099 0 59.006 5.124 72.064 7.576v-152.254c-14.187-3.416-46.61-7.961-80.080-7.961-199.663 0.028-288.283 125.23-288.283 254.014z"></path>
<path d="M7169.314 271.153v16.611h-30.77v84.956h-16.666v-84.956h-30.826v-16.611zM7195.953 372.72h-16.501v-101.457h18.539l27.933 65.921 28.236-65.921h18.567v101.457h-16.584v-46.583l3.14-27.547h-1.46l-8.567 23.994-16.611 36.060h-13.057l-16.749-36.060-8.485-24.379h-1.377l2.975 28.071z"></path>
</svg>
