<svg width="82" height="24" xmlns="http://www.w3.org/2000/svg"><g fill="#A5B7C6" fill-rule="nonzero"><path d="M10.484 6.094H5.95V2.398H2.606v3.696H.21v2.997h2.396v4.82c0 3.222 1.597 4.97 4.693 4.97a7.153 7.153 0 0 0 4.143-1.298l-1.248-2.623c-.674.425-1.523.8-2.321.8C6.824 15.76 6 15.185 6 13.612V9.066h4.517V6.07l-.034.025zM24.521 6.094h-3.344v6.893c0 1.998-1.124 2.798-2.546 2.798-1.423 0-2.546-.775-2.546-2.798V6.094h-3.37v7.143c0 3.971 2.77 5.645 5.89 5.645 3.12 0 5.892-1.699 5.892-5.645l.024-7.143zM37.027 6.094h-4.543V2.398h-3.345v3.696h-2.396v2.997h2.396v4.82c0 3.222 1.598 4.97 4.693 4.97a7.153 7.153 0 0 0 4.143-1.298l-1.248-2.623c-.674.425-1.522.8-2.321.8-1.048 0-1.872-.575-1.872-2.148V9.066h4.518V6.07l-.025.025zM46.287 5.77a4.542 4.542 0 0 0-3.744 1.723V6.119h-3.27v17.658h3.345v-6.469a4.636 4.636 0 0 0 3.67 1.624c3.444 0 6.04-2.798 6.04-6.57 0-3.77-2.596-6.593-6.04-6.593zm-.4 10.04c-1.921 0-3.219-1.474-3.219-3.447s1.298-3.447 3.22-3.447c1.972 0 3.22 1.524 3.22 3.447s-1.198 3.447-3.22 3.447zM62.462 1.324l-.125.2s-.175.3-.424.774a4.445 4.445 0 0 0-.3.674l-.075.2-.3.75c-.424-1.4-1.622-3.847-5.016-3.647 0 0 .374 5.02 4.717 4.645a10.863 10.863 0 0 0-.324 2.373v.474l.798.175v-.3c0-.024.05-3.496 2.047-5.42l.25-.224-1.248-.674z"/><path d="M63.735 6.094v1.374a4.542 4.542 0 0 0-3.744-1.724c-3.445 0-6.04 2.798-6.04 6.569s2.62 6.569 6.04 6.569c1.722 0 2.945-.7 3.744-1.699v1.699h3.27V6.069h-3.27v.025zM60.34 15.81c-1.972 0-3.22-1.524-3.22-3.447s1.248-3.447 3.22-3.447c1.922 0 3.22 1.474 3.22 3.447s-1.298 3.447-3.22 3.447zM78.462.025v7.368c-.799-1-1.997-1.624-3.67-1.624-3.444 0-6.04 2.798-6.04 6.569s2.62 6.569 6.04 6.569c1.723 0 2.946-.7 3.745-1.699v1.699h3.294V0h-3.37v.025zm-3.33 15.785c-1.972 0-3.22-1.524-3.22-3.447s1.248-3.447 3.22-3.447c1.922 0 3.22 1.474 3.22 3.447s-1.288 3.447-3.22 3.447z"/></g></svg>